<?xml version="1.0" encoding="UTF-8" standalone="no"?>
<!DOCTYPE svg PUBLIC "-//W3C//DTD SVG 1.1//EN"
 "http://www.w3.org/Graphics/SVG/1.1/DTD/svg11.dtd">
<!-- Generated by graphviz version 2.38.0 (20140413.2041)
 -->
<!-- Title: G Pages: 1 -->
<svg width="178pt" height="474pt"
 viewBox="0.00 0.00 178.00 474.00" xmlns="http://www.w3.org/2000/svg" xmlns:xlink="http://www.w3.org/1999/xlink">
<g id="graph0" class="graph" transform="scale(1 1) rotate(0) translate(4 470)">
<title>G</title>
<polygon fill="white" stroke="none" points="-4,4 -4,-470 174,-470 174,4 -4,4"/>
<g id="clust1" class="cluster"><title>cluster_Global</title>
<path fill="none" stroke="gray" d="M20,-8C20,-8 150,-8 150,-8 156,-8 162,-14 162,-20 162,-20 162,-446 162,-446 162,-452 156,-458 150,-458 150,-458 20,-458 20,-458 14,-458 8,-452 8,-446 8,-446 8,-20 8,-20 8,-14 14,-8 20,-8"/>
<text text-anchor="middle" x="85" y="-445.2" font-family="Times New Roman,serif" font-size="11.00" fill="gray">Global</text>
</g>
<!-- \\DatabaseConnection -->
<g id="node1" class="node"><title>\\DatabaseConnection</title>
<polygon fill="none" stroke="black" points="154,-430 16,-430 16,-394 154,-394 154,-430"/>
<text text-anchor="middle" x="85" y="-409.2" font-family="Courier,monospace" font-size="11.00">DatabaseConnection</text>
</g>
<!-- \\MessageHandler -->
<g id="node2" class="node"><title>\\MessageHandler</title>
<polygon fill="none" stroke="black" points="140.5,-376 29.5,-376 29.5,-340 140.5,-340 140.5,-376"/>
<text text-anchor="middle" x="85" y="-355.2" font-family="Courier,monospace" font-size="11.00">MessageHandler</text>
</g>
<!-- \\LoginHandler -->
<g id="node3" class="node"><title>\\LoginHandler</title>
<polygon fill="none" stroke="black" points="134,-322 36,-322 36,-286 134,-286 134,-322"/>
<text text-anchor="middle" x="85" y="-301.2" font-family="Courier,monospace" font-size="11.00">LoginHandler</text>
</g>
<!-- \\PermissionHandler -->
<g id="node4" class="node"><title>\\PermissionHandler</title>
<polygon fill="none" stroke="black" points="150.5,-268 19.5,-268 19.5,-232 150.5,-232 150.5,-268"/>
<text text-anchor="middle" x="85" y="-247.2" font-family="Courier,monospace" font-size="11.00">PermissionHandler</text>
</g>
<!-- \\CookieHandler -->
<g id="node5" class="node"><title>\\CookieHandler</title>
<polygon fill="none" stroke="black" points="137,-214 33,-214 33,-178 137,-178 137,-214"/>
<text text-anchor="middle" x="85" y="-193.2" font-family="Courier,monospace" font-size="11.00">CookieHandler</text>
</g>
<!-- \\DisposableMail -->
<g id="node6" class="node"><title>\\DisposableMail</title>
<polygon fill="none" stroke="black" points="140.5,-160 29.5,-160 29.5,-124 140.5,-124 140.5,-160"/>
<text text-anchor="middle" x="85" y="-139.2" font-family="Courier,monospace" font-size="11.00">DisposableMail</text>
</g>
<!-- \\LanguageHandler -->
<g id="node7" class="node"><title>\\LanguageHandler</title>
<polygon fill="none" stroke="black" points="144,-106 26,-106 26,-70 144,-70 144,-106"/>
<text text-anchor="middle" x="85" y="-85.2" font-family="Courier,monospace" font-size="11.00">LanguageHandler</text>
</g>
<!-- \\CRSF -->
<g id="node8" class="node"><title>\\CRSF</title>
<polygon fill="none" stroke="black" points="112,-52 58,-52 58,-16 112,-16 112,-52"/>
<text text-anchor="middle" x="85" y="-31.2" font-family="Courier,monospace" font-size="11.00">CRSF</text>
</g>
</g>
</svg>
