<?xml version="1.0" encoding="UTF-8" standalone="no"?>
<!DOCTYPE svg PUBLIC "-//W3C//DTD SVG 1.1//EN"
 "http://www.w3.org/Graphics/SVG/1.1/DTD/svg11.dtd">
<!-- Generated by graphviz version 2.38.0 (20140413.2041)
 -->
<!-- Title: G Pages: 1 -->
<svg width="178pt" height="204pt"
 viewBox="0.00 0.00 178.00 204.00" xmlns="http://www.w3.org/2000/svg" xmlns:xlink="http://www.w3.org/1999/xlink">
<g id="graph0" class="graph" transform="scale(1 1) rotate(0) translate(4 200)">
<title>G</title>
<polygon fill="white" stroke="none" points="-4,4 -4,-200 174,-200 174,4 -4,4"/>
<g id="clust1" class="cluster"><title>cluster_Global</title>
<path fill="none" stroke="gray" d="M20,-8C20,-8 150,-8 150,-8 156,-8 162,-14 162,-20 162,-20 162,-176 162,-176 162,-182 156,-188 150,-188 150,-188 20,-188 20,-188 14,-188 8,-182 8,-176 8,-176 8,-20 8,-20 8,-14 14,-8 20,-8"/>
<text text-anchor="middle" x="85" y="-175.2" font-family="Times New Roman,serif" font-size="11.00" fill="gray">Global</text>
</g>
<!-- \\DatabaseConnection -->
<g id="node1" class="node"><title>\\DatabaseConnection</title>
<polygon fill="none" stroke="black" points="154,-160 16,-160 16,-124 154,-124 154,-160"/>
<text text-anchor="middle" x="85" y="-139.2" font-family="Courier,monospace" font-size="11.00">DatabaseConnection</text>
</g>
<!-- \\LoginHandler -->
<g id="node2" class="node"><title>\\LoginHandler</title>
<polygon fill="none" stroke="black" points="134,-106 36,-106 36,-70 134,-70 134,-106"/>
<text text-anchor="middle" x="85" y="-85.2" font-family="Courier,monospace" font-size="11.00">LoginHandler</text>
</g>
<!-- \\PermissionHandler -->
<g id="node3" class="node"><title>\\PermissionHandler</title>
<polygon fill="none" stroke="black" points="150.5,-52 19.5,-52 19.5,-16 150.5,-16 150.5,-52"/>
<text text-anchor="middle" x="85" y="-31.2" font-family="Courier,monospace" font-size="11.00">PermissionHandler</text>
</g>
</g>
</svg>
